<?xml version="1.0" standalone="no"?>
<!DOCTYPE svg PUBLIC "-//W3C//DTD SVG 20010904//EN"
 "http://www.w3.org/TR/2001/REC-SVG-20010904/DTD/svg10.dtd">
<svg version="1.0" xmlns="http://www.w3.org/2000/svg"
 width="512.000000pt" height="512.000000pt" viewBox="0 0 512.000000 512.000000"
 preserveAspectRatio="xMidYMid meet">
<metadata>
Created by potrace 1.14, written by Peter Selinger 2001-2017
</metadata>
<g transform="translate(0.000000,512.000000) scale(0.100000,-0.100000)"
fill="#000000" stroke="none">
<path d="M2195 4545 c-553 -97 -1064 -447 -1353 -927 -28 -46 -62 -108 -78
-139 l-27 -57 108 -188 c220 -383 327 -564 333 -564 4 0 20 24 36 53 31 57
294 514 494 857 121 207 288 497 474 819 49 85 87 155 86 156 -2 1 -34 -4 -73
-10z"/>
<path d="M3074 3560 c-30 -20 -84 -89 -84 -109 0 -11 -20 -17 -295 -89 -376
-100 -470 -133 -563 -201 -70 -51 -72 -69 -23 -145 53 -81 113 -136 188 -174
61 -31 179 -62 235 -62 70 0 73 -4 73 -83 1 -164 76 -216 306 -210 l85 3 22
-74 c53 -180 160 -183 217 -5 l23 74 109 1 c126 1 187 15 227 52 41 39 56 82
56 161 0 76 4 81 81 81 51 0 179 34 236 63 26 14 69 43 95 66 60 53 131 165
123 192 -7 22 -91 87 -150 116 -54 27 -260 88 -629 187 -71 19 -132 41 -137
48 -49 87 -94 128 -140 128 -13 0 -38 -9 -55 -20z"/>
<path d="M664 3263 c-44 -106 -95 -330 -113 -495 -48 -437 66 -927 298 -1280
l51 -78 433 0 c239 0 437 3 440 7 4 3 3 11 -2 17 -5 6 -96 162 -202 346 -106
184 -262 454 -346 600 -84 146 -237 412 -340 592 -104 180 -191 328 -195 328
-4 0 -15 -17 -24 -37z"/>
<path d="M3665 1871 c-52 -24 -60 -34 -138 -171 -62 -111 -411 -693 -590 -987
-48 -78 -87 -144 -87 -146 0 -6 136 19 227 42 190 49 374 129 561 245 232 144
435 341 587 571 71 106 155 251 155 268 0 11 -153 82 -270 124 -201 73 -362
93 -445 54z"/>
<path d="M989 1293 c5 -10 54 -66 110 -125 363 -383 847 -604 1371 -625 80 -3
171 -3 201 1 l56 7 78 137 c44 75 141 244 217 376 76 131 138 240 138 242 0 2
-491 4 -1090 4 -1036 0 -1090 -1 -1081 -17z"/>
</g>
</svg>
